<?xml version="1.0" encoding="utf-8"?>
<!-- Generator: Adobe Illustrator 24.0.2, SVG Export Plug-In . SVG Version: 6.00 Build 0)  -->
<svg version="1.1" id="Layer_1" xmlns="http://www.w3.org/2000/svg" xmlns:xlink="http://www.w3.org/1999/xlink" x="0px" y="0px"
	 viewBox="0 0 1280 529" style="enable-background:new 0 0 1280 529;" xml:space="preserve">
<style type="text/css">
	.st0{fill:#CCCCCC;}
	.st1{fill:#FFFFFF;}
	.st2{fill:none;stroke:#000000;stroke-width:5;stroke-miterlimit:10;}
	.st3{fill:none;}
	.st4{font-family:'ArialMT';}
	.st5{font-size:42px;}
	.st6{font-family:'Arial-BoldMT';}
	.st7{fill:none;stroke:#000000;stroke-width:6;stroke-miterlimit:10;}
	.st8{font-size:25px;}
</style>
<ellipse class="st0" cx="553" cy="119.5" rx="107" ry="70.5"/>
<rect x="63" y="156" class="st0" width="282" height="313"/>
<rect x="759" y="146" class="st0" width="458" height="313"/>
<g>
	<g>
		<rect x="108.5" y="222.5" class="st1" width="106" height="147"/>
		<path d="M212,225v142H111V225H212 M217,220H106v152h111V220L217,220z"/>
	</g>
	<path class="st2" d="M117,242.5c8.9,0,8.9,10,17.8,10c8.9,0,8.9-10,17.8-10c8.9,0,8.9,10,17.8,10c8.9,0,8.9-10,17.8-10
		c8.9,0,8.9,10,17.8,10"/>
	<path class="st2" d="M117,267.5c8.9,0,8.9,10,17.8,10c8.9,0,8.9-10,17.8-10c8.9,0,8.9,10,17.8,10c8.9,0,8.9-10,17.8-10
		c8.9,0,8.9,10,17.8,10"/>
	<path class="st2" d="M117,292.5c8.9,0,8.9,10,17.8,10c8.9,0,8.9-10,17.8-10c8.9,0,8.9,10,17.8,10c8.9,0,8.9-10,17.8-10
		c8.9,0,8.9,10,17.8,10"/>
	<path class="st2" d="M117,317.5c8.9,0,8.9,10,17.8,10c8.9,0,8.9-10,17.8-10c8.9,0,8.9,10,17.8,10c8.9,0,8.9-10,17.8-10
		c8.9,0,8.9,10,17.8,10"/>
</g>
<g>
	<g>
		<rect x="155.5" y="193.5" class="st1" width="106" height="147"/>
		<path d="M259,196v142H158V196H259 M264,191H153v152h111V191L264,191z"/>
	</g>
	<path class="st2" d="M199.6,213.5c8.9,0,8.9,10,17.8,10c8.9,0,8.9-10,17.8-10c8.9,0,8.9,10,17.8,10"/>
	<path class="st2" d="M199.6,238.5c8.9,0,8.9,10,17.8,10c8.9,0,8.9-10,17.8-10c8.9,0,8.9,10,17.8,10"/>
	<path class="st2" d="M164,238.5"/>
	<path class="st2" d="M199.6,288.5c8.9,0,8.9,10,17.8,10c8.9,0,8.9-10,17.8-10c8.9,0,8.9,10,17.8,10"/>
</g>
<g>
	<g>
		<rect x="200.5" y="164.5" class="st1" width="106" height="147"/>
		<path d="M304,167v142H203V167H304 M309,162H198v152h111V162L309,162z"/>
	</g>
	<path class="st2" d="M209,184.5c8.9,0,8.9,10,17.8,10c8.9,0,8.9-10,17.8-10c8.9,0,8.9,10,17.8,10c8.9,0,8.9-10,17.8-10
		c8.9,0,8.9,10,17.8,10"/>
	<path class="st2" d="M209,209.5c8.9,0,8.9,10,17.8,10c8.9,0,8.9-10,17.8-10c8.9,0,8.9,10,17.8,10c8.9,0,8.9-10,17.8-10
		c8.9,0,8.9,10,17.8,10"/>
	<path class="st2" d="M209,234.5c8.9,0,8.9,10,17.8,10c8.9,0,8.9-10,17.8-10c8.9,0,8.9,10,17.8,10c8.9,0,8.9-10,17.8-10
		c8.9,0,8.9,10,17.8,10"/>
	<path class="st2" d="M209,259.5c8.9,0,8.9,10,17.8,10c8.9,0,8.9-10,17.8-10c8.9,0,8.9,10,17.8,10c8.9,0,8.9-10,17.8-10
		c8.9,0,8.9,10,17.8,10"/>
</g>
<g>
	<g>
		<rect x="812.5" y="164.5" class="st1" width="106" height="147"/>
		<path d="M916,167v142H815V167H916 M921,162H810v152h111V162L921,162z"/>
	</g>
	<path class="st2" d="M821,184.5c8.9,0,8.9,10,17.8,10c8.9,0,8.9-10,17.8-10c8.9,0,8.9,10,17.8,10c8.9,0,8.9-10,17.8-10
		c8.9,0,8.9,10,17.8,10"/>
	<path class="st2" d="M821,209.5c8.9,0,8.9,10,17.8,10c8.9,0,8.9-10,17.8-10c8.9,0,8.9,10,17.8,10c8.9,0,8.9-10,17.8-10
		c8.9,0,8.9,10,17.8,10"/>
	<path class="st2" d="M821,234.5c8.9,0,8.9,10,17.8,10c8.9,0,8.9-10,17.8-10c8.9,0,8.9,10,17.8,10c8.9,0,8.9-10,17.8-10
		c8.9,0,8.9,10,17.8,10"/>
	<path class="st2" d="M821,259.5c8.9,0,8.9,10,17.8,10c8.9,0,8.9-10,17.8-10c8.9,0,8.9,10,17.8,10c8.9,0,8.9-10,17.8-10
		c8.9,0,8.9,10,17.8,10"/>
</g>
<g>
	<rect x="936.5" y="213.5" class="st1" width="106" height="147"/>
	<path d="M1040,216v142H939V216H1040 M1045,211H934v152h111V211L1045,211z"/>
</g>
<g>
	<g>
		<rect x="1060.5" y="243.5" class="st1" width="106" height="147"/>
		<path d="M1164,246v142h-101V246H1164 M1169,241h-111v152h111V241L1169,241z"/>
	</g>
	<path class="st2" d="M1069,263.5c8.9,0,8.9,10,17.8,10c8.9,0,8.9-10,17.8-10c8.9,0,8.9,10,17.8,10c8.9,0,8.9-10,17.8-10
		c8.9,0,8.9,10,17.8,10"/>
	<path class="st2" d="M1069,288.5c8.9,0,8.9,10,17.8,10c8.9,0,8.9-10,17.8-10c8.9,0,8.9,10,17.8,10c8.9,0,8.9-10,17.8-10
		c8.9,0,8.9,10,17.8,10"/>
	<path class="st2" d="M1069,313.5c8.9,0,8.9,10,17.8,10c8.9,0,8.9-10,17.8-10c8.9,0,8.9,10,17.8,10c8.9,0,8.9-10,17.8-10
		c8.9,0,8.9,10,17.8,10"/>
	<path class="st2" d="M1069,338.5c8.9,0,8.9,10,17.8,10c8.9,0,8.9-10,17.8-10c8.9,0,8.9,10,17.8,10c8.9,0,8.9-10,17.8-10
		c8.9,0,8.9,10,17.8,10"/>
</g>
<rect x="950.9" y="233.8" class="st3" width="77.6" height="91.3"/>
<text transform="matrix(1 0 0 1 950.9297 263.8228)"><tspan x="0" y="0" class="st4 st5">? ?</tspan><tspan x="0" y="50.4" class="st4 st5">? ?</tspan></text>
<text transform="matrix(1 0 0 1 506.0571 106.6006)"><tspan x="0" y="0" class="st6 st5">OCR</tspan><tspan x="-14" y="50.4" class="st6 st5">CORP</tspan></text>
<text transform="matrix(1 0 0 1 85.1367 437.5137)" class="st4 st5">Page images</text>
<text transform="matrix(1 0 0 1 161.1367 127.5137)" class="st4 st5">API request</text>
<text transform="matrix(1 0 0 1 772.1367 437.5137)" class="st4 st5">Machine-readable text</text>
<g>
	<line class="st7" x1="337" y1="228" x2="438" y2="127"/>
	<polygon points="450.8,114.1 424.6,121.1 443.8,140.3 	"/>
</g>
<g>
	<line class="st7" x1="656.3" y1="123" x2="757.3" y2="224"/>
	<polygon points="770.2,236.8 763.2,210.6 744,229.8 	"/>
</g>
<text transform="matrix(0.7071 -0.7071 0.7071 0.7071 392.5579 212.2506)" class="st4 st8">$2€</text>
</svg>
