<?xml version="1.0" encoding="utf-8"?>
<!-- Generator: Adobe Illustrator 24.0.2, SVG Export Plug-In . SVG Version: 6.00 Build 0)  -->
<svg version="1.1" id="Layer_1" xmlns="http://www.w3.org/2000/svg" xmlns:xlink="http://www.w3.org/1999/xlink" x="0px" y="0px"
	 viewBox="0 0 1280 529" style="enable-background:new 0 0 1280 529;" xml:space="preserve">
<style type="text/css">
	.st0{fill:#CCCCCC;}
	.st1{fill:#FFFFFF;}
	.st2{fill:none;stroke:#000000;stroke-width:5;stroke-miterlimit:10;}
	.st3{font-family:'ArialMT';}
	.st4{font-size:42px;}
	.st5{fill:none;stroke:#000000;stroke-width:6;stroke-miterlimit:10;}
	.st6{fill:none;stroke:#020202;stroke-width:6;stroke-miterlimit:333.3333;}
	.st7{fill:#FFFFFF;stroke:#020202;stroke-width:6;stroke-miterlimit:333.3333;}
	.st8{fill-rule:evenodd;clip-rule:evenodd;}
</style>
<rect x="17.8" y="33" class="st0" width="232" height="276"/>
<rect x="720.3" y="33" class="st0" width="515.3" height="276"/>
<rect x="369.2" y="29" class="st0" width="232" height="276"/>
<g>
	<g>
		<rect x="80.8" y="97.5" class="st1" width="106" height="147"/>
		<path d="M184.3,100v142h-101V100H184.3 M189.3,95h-111v152h111V95L189.3,95z"/>
	</g>
	<path class="st2" d="M89.3,117.5c8.9,0,8.9,10,17.8,10c8.9,0,8.9-10,17.8-10c8.9,0,8.9,10,17.8,10c8.9,0,8.9-10,17.8-10
		c8.9,0,8.9,10,17.8,10"/>
	<path class="st2" d="M89.3,142.5c8.9,0,8.9,10,17.8,10c8.9,0,8.9-10,17.8-10c8.9,0,8.9,10,17.8,10c8.9,0,8.9-10,17.8-10
		c8.9,0,8.9,10,17.8,10"/>
	<path class="st2" d="M89.3,167.5c8.9,0,8.9,10,17.8,10c8.9,0,8.9-10,17.8-10c8.9,0,8.9,10,17.8,10c8.9,0,8.9-10,17.8-10
		c8.9,0,8.9,10,17.8,10"/>
	<path class="st2" d="M89.3,192.5c8.9,0,8.9,10,17.8,10c8.9,0,8.9-10,17.8-10c8.9,0,8.9,10,17.8,10"/>
</g>
<text transform="matrix(1 0 0 1 27.5461 293.5)" class="st3 st4">Newspaper</text>
<text transform="matrix(1 0 0 1 770.1721 79.5137)" class="st3 st4">Machine-readable text</text>
<text transform="matrix(1 0 0 1 882.2471 287)" class="st3 st4">Illustration</text>
<text transform="matrix(1 0 0 1 965.6934 181.3163)" class="st3 st4">+</text>
<text transform="matrix(1 0 0 1 372.0032 287)" class="st3 st4">Applications</text>
<text transform="matrix(1 0 0 1 53.2321 79.5137)" class="st3 st4">Digitized</text>
<g>
	<line class="st5" x1="250.5" y1="164.1" x2="350" y2="164.1"/>
	<polygon points="368.2,164.1 344.7,150.5 344.7,177.6 	"/>
</g>
<g>
	<line class="st5" x1="600.2" y1="171.1" x2="699.8" y2="171.1"/>
	<polygon points="717.9,171.1 694.5,157.5 694.5,184.6 	"/>
</g>
<rect x="142.7" y="187.7" class="st2" width="27.5" height="40.3"/>
<g>
	<line class="st6" x1="457" y1="216.5" x2="464.1" y2="181.3"/>
	<line class="st6" x1="435.9" y1="216.5" x2="534.6" y2="216.5"/>
	<path class="st7" d="M421.8,61.4h126.9c7.8,0,14.1,6.3,14.1,14.1v91.7c0,7.8-6.3,14.1-14.1,14.1H421.8c-7.8,0-14.1-6.3-14.1-14.1
		V75.5C407.7,67.7,414,61.4,421.8,61.4z"/>
	<line class="st6" x1="512.9" y1="216.5" x2="505.9" y2="181.3"/>
	<line class="st6" x1="407.7" y1="153.1" x2="562.8" y2="153.1"/>
</g>
<g>
	<g>
		<rect x="793.8" y="97.5" class="st1" width="106" height="147"/>
		<path d="M897.3,100v142h-101V100H897.3 M902.3,95h-111v152h111V95L902.3,95z"/>
	</g>
	<path class="st2" d="M802.3,117.5c8.9,0,8.9,10,17.8,10c8.9,0,8.9-10,17.8-10c8.9,0,8.9,10,17.8,10c8.9,0,8.9-10,17.8-10
		c8.9,0,8.9,10,17.8,10"/>
	<path class="st2" d="M802.3,142.5c8.9,0,8.9,10,17.8,10c8.9,0,8.9-10,17.8-10c8.9,0,8.9,10,17.8,10c8.9,0,8.9-10,17.8-10
		c8.9,0,8.9,10,17.8,10"/>
	<path class="st2" d="M802.3,167.5c8.9,0,8.9,10,17.8,10c8.9,0,8.9-10,17.8-10c8.9,0,8.9,10,17.8,10c8.9,0,8.9-10,17.8-10
		c8.9,0,8.9,10,17.8,10"/>
	<path class="st2" d="M802.3,192.5c8.9,0,8.9,10,17.8,10c8.9,0,8.9-10,17.8-10c8.9,0,8.9,10,17.8,10c8.9,0,8.9-10,17.8-10
		c8.9,0,8.9,10,17.8,10"/>
</g>
<g>
	<g>
		<rect x="1054.2" y="97.5" class="st1" width="106" height="147"/>
		<path d="M1157.7,100v142h-101V100H1157.7 M1162.7,95h-111v152h111V95L1162.7,95z"/>
	</g>
	<path class="st2" d="M1151.7,127.5"/>
	<path class="st2" d="M1116.1,127.5"/>
	<path class="st2" d="M1098.3,117.5"/>
	<path class="st2" d="M1062.7,142.5"/>
</g>
<path class="st8" d="M1076,131.4c0.8-1.6,2.4-2.4,3.9-1.9c6.4,1.9,11.8,5.1,17,9.7c3.3-1.3,6.7-2,10.3-2c3.6,0,7.1,0.7,10.3,2
	c5.1-4.6,10.6-7.8,17-9.7c1.5-0.5,3.1,0.3,3.9,1.9c2.3,4.6,2.5,9.8,2,14.4c-0.4,3.9-1.4,7.7-2.3,11c2.5,6,3.9,12.9,3.9,20.1
	c0,2.6-0.2,5.1-0.5,7.5l3.2-0.9c1.9-0.5,3.7,0.9,4.2,3.1c0.4,2.2-0.7,4.5-2.6,5l-7.4,2.1c-1.1,2.5-2.4,4.8-4,6.8l2.3,2.5
	c1.4,1.5,1.6,4.2,0.3,5.9s-3.5,1.9-4.9,0.4l-3.2-3.4c-6.2,4.7-14,6.7-22.2,6.7c-8.2,0-16-2-22.2-6.7l-3.2,3.4
	c-1.4,1.5-3.6,1.4-4.9-0.4c-1.3-1.7-1.1-4.4,0.3-5.9l2.3-2.5c-1.6-2-2.9-4.3-4-6.8l-7.4-2.1c-1.9-0.5-3-2.8-2.6-5
	c0.4-2.2,2.3-3.6,4.2-3.1l3.2,0.9c-0.4-2.3-0.5-4.8-0.5-7.5c0-7.3,1.4-14.1,3.9-20.1c-0.9-3.3-1.9-7.1-2.3-11
	C1073.5,141.2,1073.8,136.1,1076,131.4z M1133.8,186.6l-11.3,3.2c-1.3,0.4-2.3,1.5-2.6,3c-0.3,1.5,0.1,3.1,1.1,4.1l3,3.2
	c-4.5,2.8-10.2,4.2-16.7,4.2c-6.5,0-12.2-1.4-16.7-4.2l3-3.2c1-1,1.4-2.6,1.1-4.1c-0.3-1.5-1.3-2.7-2.6-3l-11.3-3.2
	c-0.8-2.8-1.2-6-1.2-9.6c0-6.5,1.4-12.6,3.8-17.8c0.5-1,0.6-2.3,0.2-3.4c-1.1-3.6-2.1-7.3-2.5-11c-0.2-2.3-0.2-4.4,0.2-6.2
	c4.8,1.9,8.9,4.6,13,8.6c1,0.9,2.3,1.2,3.5,0.6c3-1.4,6.3-2.2,9.7-2.2c3.4,0,6.7,0.8,9.7,2.2c1.2,0.6,2.5,0.3,3.5-0.6
	c4-3.9,8.2-6.7,13-8.6c0.4,1.8,0.4,3.9,0.2,6.2c-0.4,3.6-1.4,7.4-2.5,11c-0.3,1.1-0.3,2.4,0.2,3.4c2.4,5.2,3.8,11.3,3.8,17.8
	C1135,180.6,1134.6,183.8,1133.8,186.6z M1121.1,177.2c2.9,0,5.2-2.8,5.2-6.2c0-3.4-2.3-6.2-5.2-6.2s-5.2,2.8-5.2,6.2
	C1115.9,174.4,1118.2,177.2,1121.1,177.2z M1093.7,177.7c2.9,0,5.2-2.8,5.2-6.2c0-3.4-2.3-6.2-5.2-6.2s-5.2,2.8-5.2,6.2
	C1088.5,175,1090.8,177.7,1093.7,177.7z M1103.7,183.5c-1.4,0-2.7,1-3.2,2.6c-0.5,1.6-0.2,3.3,0.8,4.5l3.5,4.2
	c1.4,1.6,3.6,1.6,4.9,0l3.5-4.2c1-1.2,1.3-3,0.8-4.5c-0.5-1.6-1.8-2.6-3.2-2.6H1103.7z"/>
</svg>
