<?xml version="1.0" encoding="utf-8"?>
<!-- Generator: Adobe Illustrator 24.0.2, SVG Export Plug-In . SVG Version: 6.00 Build 0)  -->
<svg version="1.1" id="Layer_1" xmlns="http://www.w3.org/2000/svg" xmlns:xlink="http://www.w3.org/1999/xlink" x="0px" y="0px"
	 viewBox="0 0 1280 529" style="enable-background:new 0 0 1280 529;" xml:space="preserve">
<style type="text/css">
	.st0{fill:#FFFFFF;}
	.st1{fill:#CCCCCC;}
	.st2{fill:none;stroke:#000000;stroke-width:5;stroke-miterlimit:10;}
	.st3{fill:#FFFFFF;stroke:#000000;stroke-width:6;stroke-miterlimit:10;}
	.st4{fill:none;}
	.st5{font-family:'ArialMT';}
	.st6{font-size:42px;}
	.st7{enable-background:new    ;}
	.st8{fill:none;stroke:#000000;stroke-width:6;stroke-miterlimit:10;}
	.st9{stroke:#FFFFFF;stroke-width:3;stroke-miterlimit:10;}
</style>
<rect class="st0" width="1280" height="529"/>
<rect x="17.8" y="33" class="st1" width="232" height="276"/>
<rect x="369.2" y="29" class="st1" width="232" height="276"/>
<g>
	<g>
		<rect x="80.8" y="97.5" class="st0" width="106" height="147"/>
		<path d="M184.3,100v142h-101V100H184.3 M189.3,95h-111v152h111V95L189.3,95z"/>
	</g>
	<path class="st2" d="M89.3,117.5c8.9,0,8.9,10,17.8,10c8.9,0,8.9-10,17.8-10c8.9,0,8.9,10,17.8,10c8.9,0,8.9-10,17.8-10
		c8.9,0,8.9,10,17.8,10"/>
	<path class="st2" d="M89.3,142.5c8.9,0,8.9,10,17.8,10c8.9,0,8.9-10,17.8-10c8.9,0,8.9,10,17.8,10c8.9,0,8.9-10,17.8-10
		c8.9,0,8.9,10,17.8,10"/>
	<path class="st2" d="M89.3,167.5c8.9,0,8.9,10,17.8,10c8.9,0,8.9-10,17.8-10c8.9,0,8.9,10,17.8,10c8.9,0,8.9-10,17.8-10
		c8.9,0,8.9,10,17.8,10"/>
	<path class="st2" d="M89.3,192.5c8.9,0,8.9,10,17.8,10c8.9,0,8.9-10,17.8-10c8.9,0,8.9,10,17.8,10"/>
</g>
<g>
	<rect x="830" y="445.4" class="st3" width="159.7" height="57.1"/>
</g>
<rect x="950.9" y="233.8" class="st4" width="77.6" height="91.3"/>
<text transform="matrix(1 0 0 1 27.5461 293.5)" class="st5 st6">Newspaper</text>
<text transform="matrix(1 0 0 1 408.1995 287)" class="st5 st6">External</text>
<text transform="matrix(1 0 0 1 864.2373 373.0728)" class="st7"><tspan x="0" y="0" class="st5 st6">Log </tspan><tspan x="-10.5" y="50.4" class="st5 st6">Orgs</tspan></text>
<text transform="matrix(1 0 0 1 53.2321 79.5137)" class="st5 st6">Digitized</text>
<text transform="matrix(1 0 0 1 990.2166 112.7303)" class="st5 st6">60%</text>
<text transform="matrix(1 0 0 1 990.2165 261.7394)" class="st5 st6">40%</text>
<g>
	<line class="st8" x1="250.5" y1="164.1" x2="350" y2="164.1"/>
	<polygon points="368.2,164.1 344.7,150.5 344.7,177.6 	"/>
</g>
<g>
	<line class="st8" x1="684.2" y1="275.4" x2="754.6" y2="345.8"/>
	<polygon points="767.5,358.6 760.5,332.4 741.3,351.6 	"/>
</g>
<g>
	<line class="st8" x1="675.2" y1="139.2" x2="745.7" y2="68.7"/>
	<polygon points="758.5,55.8 732.3,62.8 751.5,82 	"/>
</g>
<g>
	<line class="st8" x1="660.5" y1="213.8" x2="760.1" y2="213.8"/>
	<polygon points="778.2,213.7 754.8,200.1 754.8,227.3 	"/>
</g>
<g>
	<line class="st8" x1="675.3" y1="356.4" x2="776.3" y2="457.4"/>
	<polygon points="789.2,470.2 782.2,444 763,463.2 	"/>
</g>
<g>
	<circle class="st3" cx="889.3" cy="95" r="70"/>
	<circle cx="863" cy="75.2" r="13.5"/>
	<circle cx="912.8" cy="75.2" r="13.5"/>
	<path class="st8" d="M852.3,118.3c0,0,13.6,18.5,35.8,18.5c24.7,0,35.8-18.5,35.8-18.5"/>
</g>
<g>
	<circle class="st3" cx="889.3" cy="247" r="70"/>
	<circle cx="863" cy="227.2" r="13.5"/>
	<circle cx="912.8" cy="227.2" r="13.5"/>
	<path class="st8" d="M852.3,270.3c0,0,13.6-17.2,35.8-17.2c24.7,0,35.8,17.2,35.8,17.2"/>
</g>
<rect x="142.7" y="187.7" class="st2" width="27.5" height="40.3"/>
<rect x="390.8" y="107" class="st9" width="142.8" height="100.9"/>
<polygon class="st9" points="556.6,157.4 533.6,206 533.6,110.5 556.6,72 "/>
<polygon class="st9" points="533.6,107 390.8,107 423.2,68.5 556.6,68.5 "/>
</svg>
