<?xml version="1.0" encoding="utf-8"?>
<!-- Generator: Adobe Illustrator 24.0.2, SVG Export Plug-In . SVG Version: 6.00 Build 0)  -->
<svg version="1.1" id="Layer_1" xmlns="http://www.w3.org/2000/svg" xmlns:xlink="http://www.w3.org/1999/xlink" x="0px" y="0px"
	 viewBox="0 0 1280 529" style="enable-background:new 0 0 1280 529;" xml:space="preserve">
<style type="text/css">
	.st0{fill:#CCCCCC;}
	.st1{fill:#FFFFFF;}
	.st2{fill:none;stroke:#000000;stroke-width:5;stroke-miterlimit:10;}
	.st3{fill:#FFFFFF;stroke:#000000;stroke-width:6;stroke-miterlimit:10;}
	.st4{fill:none;}
	.st5{font-family:'ArialMT';}
	.st6{font-size:42px;}
	.st7{enable-background:new    ;}
	.st8{fill:none;stroke:#000000;stroke-width:6;stroke-miterlimit:10;}
	.st9{fill:#007F00;}
	.st10{fill:#D40000;}
</style>
<rect x="17.8" y="33" class="st0" width="232" height="276"/>
<rect x="369.2" y="29" class="st0" width="232" height="276"/>
<rect x="964" y="36" class="st0" width="289" height="262.5"/>
<g>
	<g>
		<rect x="80.8" y="97.5" class="st1" width="106" height="147"/>
		<path d="M184.3,100v142h-101V100H184.3 M189.3,95h-111v152h111V95L189.3,95z"/>
	</g>
	<path class="st2" d="M89.3,117.5c8.9,0,8.9,10,17.8,10c8.9,0,8.9-10,17.8-10c8.9,0,8.9,10,17.8,10c8.9,0,8.9-10,17.8-10
		c8.9,0,8.9,10,17.8,10"/>
	<path class="st2" d="M89.3,142.5c8.9,0,8.9,10,17.8,10c8.9,0,8.9-10,17.8-10c8.9,0,8.9,10,17.8,10c8.9,0,8.9-10,17.8-10
		c8.9,0,8.9,10,17.8,10"/>
	<path class="st2" d="M89.3,167.5c8.9,0,8.9,10,17.8,10c8.9,0,8.9-10,17.8-10c8.9,0,8.9,10,17.8,10c8.9,0,8.9-10,17.8-10
		c8.9,0,8.9,10,17.8,10"/>
	<path class="st2" d="M89.3,192.5c8.9,0,8.9,10,17.8,10c8.9,0,8.9-10,17.8-10c8.9,0,8.9,10,17.8,10c8.9,0,8.9-10,17.8-10
		c8.9,0,8.9,10,17.8,10"/>
</g>
<g>
	<rect x="980.3" y="50" class="st3" width="256.4" height="182.8"/>
</g>
<g>
	<g>
		<rect x="992.2" y="69" class="st1" width="106" height="147"/>
		<path d="M1095.7,71.5v142h-101v-142H1095.7 M1100.7,66.5h-111v152h111V66.5L1100.7,66.5z"/>
	</g>
	<path class="st2" d="M1000.7,89c8.9,0,8.9,10,17.8,10c8.9,0,8.9-10,17.8-10c8.9,0,8.9,10,17.8,10s8.9-10,17.8-10
		c8.9,0,8.9,10,17.8,10"/>
	<path class="st2" d="M1000.7,114c8.9,0,8.9,10,17.8,10c8.9,0,8.9-10,17.8-10c8.9,0,8.9,10,17.8,10s8.9-10,17.8-10
		c8.9,0,8.9,10,17.8,10"/>
	<path class="st2" d="M1000.7,139c8.9,0,8.9,10,17.8,10c8.9,0,8.9-10,17.8-10c8.9,0,8.9,10,17.8,10s8.9-10,17.8-10
		c8.9,0,8.9,10,17.8,10"/>
	<path class="st2" d="M1000.7,164c8.9,0,8.9,10,17.8,10c8.9,0,8.9-10,17.8-10c8.9,0,8.9,10,17.8,10s8.9-10,17.8-10
		c8.9,0,8.9,10,17.8,10"/>
</g>
<rect x="950.9" y="233.8" class="st4" width="77.6" height="91.3"/>
<text transform="matrix(1 0 0 1 92.925 293.5)" class="st5 st6">Text</text>
<text transform="matrix(1 0 0 1 428.0408 287)" class="st5 st6">Model</text>
<text transform="matrix(1 0 0 1 1025.4591 279.4496)" class="st5 st6">Catalogue</text>
<text transform="matrix(1 0 0 1 1116.483 113.9999)" class="st7"><tspan x="0" y="0" class="st5 st6">Lang </tspan><tspan x="18.7" y="50.4" class="st5 st6">PA</tspan></text>
<text transform="matrix(1 0 0 1 28.715 79.5137)" class="st5 st6">Multilingual</text>
<text transform="matrix(1 0 0 1 763.5472 479.5137)" class="st5 st6">Cataloguer</text>
<text transform="matrix(1 0 0 1 692.5472 94)" class="st5 st6">PA: 60%</text>
<text transform="matrix(1 0 0 1 692.5468 192.5002)" class="st7"><tspan x="0" y="0" class="st5 st6">SA: 40%</tspan><tspan x="0" y="50.4" class="st5 st6">Language</tspan><tspan x="0" y="100.8" class="st5 st6">Predictions</tspan></text>
<text transform="matrix(1 0 0 1 1140.9999 417.8499)" class="st7"><tspan x="0" y="0" class="st5 st6">SA </tspan><tspan x="0" y="50.4" class="st5 st6">PA </tspan></text>
<g>
	<line class="st8" x1="250.5" y1="164.1" x2="350" y2="164.1"/>
	<polygon points="368.2,164.1 344.7,150.5 344.7,177.6 	"/>
</g>
<g>
	<line class="st8" x1="858.4" y1="83.7" x2="958" y2="83.7"/>
	<polygon points="963.1,83.7 939.6,70.1 939.6,97.2 	"/>
</g>
<g>
	<line class="st8" x1="602.3" y1="150.9" x2="672.7" y2="221.3"/>
	<polygon points="685.6,234.1 678.6,207.9 659.4,227.1 	"/>
</g>
<g>
	<line class="st8" x1="602.3" y1="153.9" x2="672.7" y2="83.5"/>
	<polygon points="685.5,70.6 659.3,77.6 678.5,96.8 	"/>
</g>
<g>
	<line class="st8" x1="845.4" y1="317.1" x2="946.4" y2="418.1"/>
	<polygon points="959.3,430.9 952.3,404.7 933.1,423.9 	"/>
</g>
<g>
	<line class="st4" x1="502.6" y1="236.3" x2="502.2" y2="236.3"/>
	<g>
		<path d="M575.5,162.5v-33.8h-16.7c-2-8.3-5.3-16-9.7-22.9l12.1-12.1L537.3,70L525,82.2c-6.9-4.2-14.6-7.3-22.8-9.1V55.7h-33.9
			v17.8c-8.1,2-15.7,5.3-22.5,9.7l-12.6-12.5l-23.9,23.8l13,13c-1,1.7-2,3.4-2.8,5.2c-2.8,5.3-4.9,11.1-6.3,16.8h-18.2v33.8h18.5
			c0.6,2.2,1.2,4.4,2,6.6c0,0.1,0.1,0.3,0.1,0.4c0,0,0,0.1,0,0.1c1.8,5.2,4.2,10.2,7,14.8l-13.1,13l23.9,23.8l12.9-12.9
			c6.7,4.2,14.2,7.4,22.2,9.4v17.7h33.6v-17.4c8.4-1.8,16.2-5,23.3-9.4l11.9,11.8l23.9-23.8l-11.8-11.8c4.4-7,7.7-14.9,9.6-23.2
			L575.5,162.5L575.5,162.5z M540.6,186.1l11,11l-13.5,13.5l-10.9-10.8c-9.1,7-20,11.7-32,13.3v15.6h-18.9v-15.7
			c-11.6-1.7-22.3-6.3-31.2-13.2l-11.6,11.6l-13.5-13.5l11.9-11.5c-6.6-8.8-11.1-19.3-12.7-30.7h-16.7v-18.8h16.2l0.6-1.3
			c1.7-10.9,6.1-21,12.4-29.6L420,94.1l13.5-13.5l11.4,11.8c8.8-6.8,19.5-11.5,31-13.3V63.4h18.9V79c11.8,1.5,22.6,6,31.7,12.8
			l11.2-11.1l13.1,13.5L539.9,105c6.7,8.8,11.3,19.2,13.1,30.6h16.7v18.8h-16.5C551.8,166.2,547.3,177,540.6,186.1L540.6,186.1z"/>
		<path d="M485.6,104.5c-22.8,0-41.7,18.4-41.7,41.5s18.9,41.5,41.7,41.5c22.7,0,41.7-18.8,41.7-41.5S508.4,104.5,485.6,104.5z
			 M485.6,179.8c-18.9,0-33.9-15-33.9-33.8c0-18.8,15.4-33.8,33.9-33.8c18.5,0,33.9,15,33.9,33.8
			C519.6,164.8,504.1,179.8,485.6,179.8z"/>
	</g>
</g>
<g>
	<circle class="st3" cx="1058.7" cy="437.6" r="70"/>
	<circle cx="1032.4" cy="417.8" r="13.5"/>
	<circle cx="1082.2" cy="417.8" r="13.5"/>
	<path class="st8" d="M1021.7,461c0,0,13.6,18.5,35.8,18.5c24.7,0,35.8-18.5,35.8-18.5"/>
</g>
<g>
	<path class="st9" d="M1239.3,386.4c-0.7-0.7-1.8-0.7-2.4,0l-20.1,20.1l-10.3-10.4c-0.7-0.7-1.7-0.7-2.4,0l-3.6,3.6
		c-0.7,0.7-0.7,1.7,0,2.4l15.2,15.3c0.7,0.7,1.7,0.7,2.4,0l24.9-24.9c0.7-0.7,0.7-1.8,0-2.4L1239.3,386.4z"/>
</g>
<path class="st10" d="M1237.7,441.2l-4.8-4.8l-12.1,12.1l-12.1-12.1l-4.8,4.8l12.1,12.1l-12.1,12.1l4.8,4.8l12.1-12.1l12.1,12.1
	l4.8-4.8l-12.1-12.1L1237.7,441.2z"/>
</svg>
