<?xml version="1.0" encoding="utf-8"?>
<!-- Generator: Adobe Illustrator 24.0.2, SVG Export Plug-In . SVG Version: 6.00 Build 0)  -->
<svg version="1.1" id="Layer_1" xmlns="http://www.w3.org/2000/svg" xmlns:xlink="http://www.w3.org/1999/xlink" x="0px" y="0px"
	 viewBox="0 0 1280 529" style="enable-background:new 0 0 1280 529;" xml:space="preserve">
<style type="text/css">
	.st0{fill:#FFFFFF;}
	.st1{fill:none;stroke:#000000;stroke-width:6;stroke-miterlimit:10;}
	.st2{fill:#CCCCCC;}
	.st3{font-family:'ArialMT';}
	.st4{font-size:42px;}
	.st5{fill:none;stroke:#020202;stroke-width:6;stroke-miterlimit:333.3333;}
	.st6{fill:#FFFFFF;stroke:#020202;stroke-width:6;stroke-miterlimit:333.3333;}
	.st7{fill:#FFFFFF;stroke:#000000;stroke-width:10;stroke-linecap:round;stroke-linejoin:round;stroke-miterlimit:133.3333;}
	.st8{fill:#FFFFFF;stroke:#000000;stroke-width:7;stroke-miterlimit:10;}
	.st9{fill:none;stroke:#020202;stroke-width:8;stroke-linecap:round;stroke-miterlimit:333.3333;}
	.st10{fill:#FFFFFF;stroke:#000000;stroke-width:8;stroke-miterlimit:10;}
	.st11{fill:#FFFFFF;stroke:#000000;stroke-width:6;stroke-miterlimit:10;}
	.st12{enable-background:new    ;}
	.st13{font-size:30px;}
</style>
<rect class="st0" width="1280" height="529"/>
<g>
	<line class="st1" x1="1155.6" y1="176.5" x2="1226" y2="106.1"/>
	<polygon points="1238.8,93.2 1212.6,100.2 1231.8,119.4 	"/>
</g>
<g>
	<line class="st1" x1="1021.4" y1="176.5" x2="951" y2="106.1"/>
	<polygon points="938.1,93.3 945.1,119.5 964.3,100.3 	"/>
</g>
<rect x="979.7" y="128.9" class="st2" width="217.5" height="210"/>
<g>
	<line class="st1" x1="566.8" y1="229.1" x2="666.4" y2="229.1"/>
	<polygon points="684.5,229.1 661.1,215.5 661.1,242.6 	"/>
</g>
<g>
	<line class="st1" x1="859.6" y1="232" x2="959.2" y2="232"/>
	<polygon points="977.3,232 953.9,218.4 953.9,245.5 	"/>
</g>
<g>
	<line class="st1" x1="220.4" y1="223.4" x2="319.9" y2="223.4"/>
	<polygon points="338.1,223.4 314.6,209.8 314.6,236.9 	"/>
</g>
<rect x="22.6" y="128.9" class="st2" width="232" height="210"/>
<rect x="681.3" y="128.9" class="st2" width="217.5" height="210"/>
<rect x="335" y="128.9" class="st2" width="271" height="206"/>
<text transform="matrix(1 0 0 1 785.2563 87.8683)" class="st3 st4">IIIF server</text>
<text transform="matrix(1 0 0 1 1033.9724 87.8683)" class="st3 st4">Preservation</text>
<text transform="matrix(1 0 0 1 595.2001 502.923)" class="st3 st4">Model?</text>
<g>
	<line class="st5" x1="1071" y1="299.3" x2="1078.1" y2="264.1"/>
	<line class="st5" x1="1049.9" y1="299.3" x2="1148.6" y2="299.3"/>
	<path class="st6" d="M1035.8,144.2h126.9c7.8,0,14.1,6.3,14.1,14.1V250c0,7.8-6.3,14.1-14.1,14.1h-126.9c-7.8,0-14.1-6.3-14.1-14.1
		v-91.7C1021.7,150.5,1028,144.2,1035.8,144.2z"/>
	<line class="st5" x1="1126.9" y1="299.3" x2="1119.9" y2="264.1"/>
	<line class="st5" x1="1021.7" y1="235.9" x2="1176.8" y2="235.9"/>
</g>
<path class="st7" d="M48,152.5h47 M48,218.4h63.6 M153.7,218.4h63.6 M217.3,182.6v90.3c0,10.5,0,15.8-2,19.8
	c-1.8,3.5-4.7,6.4-8.2,8.2c-4,2-9.3,2-19.8,2H78.1c-10.5,0-15.8,0-19.8-2c-3.5-1.8-6.4-4.7-8.2-8.2c-2-4-2-9.3-2-19.8v-62.1
	c0-10.5,0-15.8,2-19.8c1.8-3.5,4.7-6.4,8.2-8.2c4-2,9.3-2,19.8-2H92c4.6,0,6.9,0,9.1-0.5c1.9-0.5,3.8-1.2,5.4-2.3
	c1.9-1.2,3.5-2.8,6.8-6l10.6-10.6c3.3-3.3,4.9-4.9,6.8-6c1.7-1,3.5-1.8,5.4-2.3c2.2-0.5,4.5-0.5,9.1-0.5h42.1c10.5,0,15.8,0,19.8,2
	c3.5,1.8,6.4,4.7,8.2,8.2C217.3,166.8,217.3,172.1,217.3,182.6z M160.9,237.2c0,15.6-12.6,28.2-28.2,28.2s-28.2-12.6-28.2-28.2
	s12.6-28.2,28.2-28.2S160.9,221.6,160.9,237.2z"/>
<path class="st8" d="M419.7,134.9c-2.4,0-4.7,0-6.5,0.2c-2,0.2-4.2,0.7-6.2,2c-1.4,1-2.7,2.2-3.6,3.6c-1.4,2-1.8,4.2-2,6.2
	c-0.2,1.9-0.2,4.1-0.2,6.5v11.6h67.4c1.6,0,2.5,0,3.2-0.1c0.3,0,0.5-0.1,0.6-0.1c0,0,0.1,0,0.1,0l0,0l0,0c0,0,0,0,0.1,0
	c0.1,0,0.2-0.1,0.4-0.3c0.5-0.4,1.2-1.1,2.3-2.2l12.3-12.3h-22.3c-0.9-8.5-8.1-15.1-16.9-15.1H419.7z"/>
<line class="st9" x1="474.7" y1="251.5" x2="474.7" y2="304.1"/>
<path class="st10" d="M401.1,216.4v-40.1h67.4l0.6,0c2.5,0,5.1,0,7.6-1c2.5-1,4.3-2.9,6.1-4.6l0.4-0.4l20.3-20.3h24.4
	c3.3,0,6.3,0,8.7,0.3c2.7,0.4,5.5,1.2,7.9,3.5c2.3,2.3,3.2,5.2,3.5,7.9c0.3,2.4,0.3,5.4,0.3,8.7v46.1c0,10.3,0,18.6-0.9,25.2
	c-0.9,6.8-2.9,12.5-7.4,17.1c-4.5,4.5-10.3,6.5-17.1,7.4c-6.5,0.9-14.9,0.9-25.2,0.9c0,0-83.9,0-93.3,0c0,0-2.2-23-2.5-25.4
	C401.1,235.1,401.1,226.8,401.1,216.4z"/>
<line class="st9" x1="409.3" y1="303" x2="540.1" y2="303"/>
<circle cx="413.8" cy="303.7" r="21.3"/>
<circle cx="540.1" cy="304.1" r="21.3"/>
<g>
	<line class="st1" x1="400.1" y1="466.8" x2="329.7" y2="396.4"/>
	<polygon points="316.8,383.6 323.8,409.8 343,390.6 	"/>
</g>
<g>
	<line class="st1" x1="579" y1="464.3" x2="508.6" y2="393.9"/>
	<polygon points="495.7,381.1 502.7,407.3 521.9,388.1 	"/>
</g>
<g>
	<line class="st1" x1="735.7" y1="451.5" x2="806.1" y2="381.1"/>
	<polygon points="818.9,368.2 792.7,375.2 811.9,394.4 	"/>
</g>
<g>
	<line class="st1" x1="908" y1="457.9" x2="978.4" y2="387.5"/>
	<polygon points="991.2,374.6 965,381.6 984.2,400.8 	"/>
</g>
<g>
	<circle class="st11" cx="792.7" cy="228.1" r="70"/>
	<circle cx="766.4" cy="208.3" r="13.5"/>
	<circle cx="816.2" cy="208.3" r="13.5"/>
	<path class="st1" d="M755.7,251.5c0,0,13.6,18.5,35.8,18.5c24.7,0,35.8-18.5,35.8-18.5"/>
</g>
<text transform="matrix(1 0 0 1 415.4878 208.278)" class="st12"><tspan x="0" y="0" class="st3 st13">Network</tspan><tspan x="22.5" y="36" class="st3 st13">drive</tspan></text>
</svg>
